<svg xmlns="http://www.w3.org/2000/svg" width="37" height="46" viewBox="0 0 37 46" fill="none">
  <path d="M17.7506 0.591943L17.5234 0.827875V2.81145V4.79502L17.7506 5.03095C18.0827 5.35427 18.7118 5.35427 19.0439 5.03095L19.2711 4.79502V2.81145V0.827875L19.0439 0.591943C18.8604 0.408441 18.7293 0.36475 18.3973 0.36475C18.0652 0.36475 17.9341 0.408441 17.7506 0.591943Z" fill="#FECB16"/>
  <path d="M8.61952 3.56338C8.39232 3.75562 8.34863 3.85174 8.34863 4.18379C8.34863 4.51584 8.46223 4.76925 9.1176 5.88774C9.76422 7.00623 9.92151 7.22468 10.1837 7.32954C10.5507 7.48683 11.0662 7.36449 11.2759 7.0674C11.5643 6.6567 11.4594 6.23727 10.6992 4.9178C10.3147 4.24496 9.8953 3.60707 9.77296 3.51095C9.44965 3.25754 8.95157 3.28375 8.61952 3.56338Z" fill="#FECB16"/>
  <path d="M26.9698 3.57316C26.83 3.71297 26.4193 4.34212 26.0523 4.98001C25.5105 5.92374 25.3882 6.2121 25.3882 6.5092C25.3882 7.19078 25.9037 7.55778 26.5678 7.33932C26.8737 7.23447 26.9698 7.11213 27.6689 5.915C28.333 4.77903 28.4378 4.55184 28.4466 4.19357C28.4466 3.84404 28.4116 3.75666 28.1757 3.56442C27.7999 3.24984 27.3106 3.24984 26.9698 3.57316Z" fill="#FECB16"/>
  <path d="M0.536526 10.337C0.22195 10.7127 0.22195 11.202 0.554002 11.5428C0.685075 11.6826 1.31423 12.0933 1.95212 12.4603C3.19294 13.1681 3.62985 13.2817 4.04055 12.9934C4.32017 12.8011 4.45124 12.3205 4.32891 11.9535C4.22405 11.6215 4.06676 11.5079 2.47641 10.5991C1.71618 10.1622 1.47151 10.0661 1.1482 10.0661C0.824887 10.0661 0.728766 10.1098 0.536526 10.337Z" fill="#FECB16"/>
  <path d="M33.9075 10.8438C32.8152 11.4904 32.588 11.6564 32.4832 11.9098C32.3346 12.2681 32.4569 12.7837 32.754 12.9934C33.1647 13.2817 33.5929 13.1681 34.8425 12.4603C35.4804 12.0933 36.1095 11.6826 36.2493 11.5428C36.5726 11.202 36.5726 10.7127 36.2581 10.337C36.0658 10.101 35.9784 10.0661 35.6289 10.0661C35.2706 10.0748 35.0435 10.1709 33.9075 10.8438Z" fill="#FECB16"/>
  <path d="M9.42344 11.4983C8.54089 11.7867 7.76319 12.4857 7.31754 13.3858L7.08161 13.8664L7.05539 16.3655L7.02918 18.8559L6.73208 18.9695C6.28643 19.1268 5.57863 19.721 5.29901 20.1579C4.88832 20.7958 3.04455 24.8416 2.87853 25.4445C2.6426 26.3183 2.66007 27.8388 2.92222 28.6776C3.18437 29.534 3.62128 30.3554 4.13683 30.9671C4.36402 31.2292 5.70097 32.5399 7.10782 33.8681L9.65938 36.2886V40.4655V44.6423L9.88657 44.8783L10.1225 45.1055H12.4993H14.8761L15.112 44.8783C15.4353 44.5462 15.4353 43.9171 15.112 43.585L14.8761 43.3578H13.1459H11.407V39.3732V35.3798L11.04 35.0216C10.8303 34.8206 9.5283 33.5798 8.13893 32.269C6.75829 30.9496 5.49125 29.6913 5.32523 29.4728C4.66986 28.5728 4.3815 27.2708 4.60869 26.2135C4.7485 25.5843 6.48741 21.6958 6.87189 21.1453C7.13403 20.7783 7.70202 20.5162 8.21757 20.5249C8.60205 20.5249 9.17877 20.7696 12.9799 22.5522C15.3567 23.6619 17.3315 24.6056 17.3665 24.6406C17.4014 24.6755 17.2878 24.859 17.1131 25.0425C16.2917 25.8902 15.2868 26.3096 14.1071 26.3183C13.1634 26.3183 12.7964 26.2047 11.0488 25.4008C10.2798 25.0425 9.57199 24.7454 9.48461 24.7454C8.72439 24.7454 8.26126 25.6979 8.75934 26.2572C8.9341 26.4581 11.0924 27.5067 12.0449 27.8562C12.5255 28.031 12.91 28.1009 13.679 28.1446L14.6751 28.197L15.1382 28.765C16.4839 30.434 17.2616 32.4351 17.4276 34.6808C17.4888 35.4148 17.5587 35.808 17.6548 35.9653C17.9607 36.4284 18.8432 36.4197 19.1403 35.9566C19.2714 35.7556 19.2889 35.5808 19.2452 34.5847C19.1928 33.3701 19.0529 32.5924 18.6947 31.5001C18.3801 30.5389 17.7247 29.1932 17.148 28.3543L16.6674 27.6465L17.2354 27.3057C17.9781 26.8776 18.8782 25.9775 19.2976 25.2523L19.6297 24.6843L19.9967 24.8066C20.2501 24.894 20.6171 24.9289 21.2025 24.9027C21.9366 24.8765 22.1201 24.8328 22.5657 24.6056L23.09 24.3348L23.3259 24.7192C23.6318 25.1998 24.1648 25.6455 24.7677 25.9513C25.1697 26.1436 25.3969 26.1873 26.0872 26.2135C26.6639 26.2397 27.0309 26.2047 27.2931 26.1173C27.6426 25.995 27.6601 25.995 27.6601 26.1523C27.6601 26.4756 27.2931 28.0398 26.6552 30.469C25.4755 34.9167 25.3881 35.5896 25.3881 40.046V43.3578H23.6492H21.9191L21.6831 43.585C21.3598 43.9171 21.3598 44.5462 21.6831 44.8783L21.9191 45.1055H24.2959H26.6727L26.9086 44.8783L27.1358 44.6423V41.7937C27.1445 36.909 27.2931 35.3624 28.062 32.4001C29.8097 25.6193 29.7136 26.3183 29.7136 20.8133V16.4878L29.4601 15.9635C29.1281 15.2907 28.464 14.6266 27.7912 14.2946C27.3018 14.0586 27.197 14.0411 26.2532 14.0411C25.292 14.0411 25.2134 14.0586 24.7153 14.312L24.191 14.5829L23.9551 14.1984C23.6492 13.7178 23.1162 13.2722 22.5045 12.9663C22.0676 12.7479 21.9366 12.7304 21.0103 12.7304C20.0491 12.7304 19.9705 12.7479 19.4724 13.0013L18.9481 13.2722L18.7122 12.8877C18.4063 12.4071 17.8733 11.9615 17.2616 11.6556C16.8247 11.4372 16.6936 11.4197 15.7761 11.4197C14.6489 11.4284 14.3343 11.5245 13.5741 12.11L13.1547 12.4246L12.744 12.11C12.0449 11.577 11.6429 11.4372 10.6643 11.4109C10.0875 11.3847 9.66811 11.4197 9.42344 11.4983ZM11.3022 13.377C11.6692 13.5693 11.8439 13.744 12.0711 14.1722C12.2197 14.4518 12.2371 14.7402 12.2634 17.3354L12.2896 20.1928L10.8216 19.5113C10.0176 19.1355 9.22247 18.7947 9.06518 18.7598L8.76808 18.6986L8.80303 16.5927C8.82925 14.6353 8.84672 14.4518 9.02149 14.1285C9.22247 13.7353 9.40597 13.5605 9.79045 13.3596C10.1575 13.1673 10.9002 13.1761 11.3022 13.377ZM16.5451 13.377C16.9121 13.5693 17.0869 13.744 17.314 14.1722C17.4713 14.4518 17.4801 14.7839 17.5238 18.4539C17.55 20.6385 17.6024 22.4823 17.6374 22.5347C17.681 22.5958 17.6723 22.6483 17.6286 22.6483C17.5937 22.6483 16.7723 22.2813 15.8111 21.8356L14.0722 21.0142V17.7461C14.0722 14.5742 14.0809 14.4693 14.2557 14.1285C14.4654 13.7353 14.6489 13.5605 15.0334 13.3596C15.4004 13.1673 16.1431 13.1761 16.5451 13.377ZM21.788 14.6878C22.155 14.88 22.3298 15.0548 22.557 15.4829C22.7143 15.7626 22.723 16.0247 22.723 18.8035C22.723 21.722 22.7143 21.8269 22.5395 22.1677C22.2074 22.7881 21.7094 23.0852 21.019 23.0852C20.3287 23.0852 19.8306 22.7881 19.4986 22.1677C19.3238 21.8269 19.3151 21.722 19.3151 18.8035C19.3151 15.8849 19.3238 15.78 19.4986 15.4393C19.7083 15.046 19.8918 14.8713 20.2763 14.6703C20.6433 14.4781 21.386 14.4868 21.788 14.6878ZM27.0309 15.9985C27.3979 16.1907 27.5727 16.3655 27.7999 16.7937C27.9572 17.0733 27.9659 17.3354 27.9659 20.1142C27.9659 23.0328 27.9572 23.1376 27.7824 23.4784C27.4504 24.0988 26.9523 24.3959 26.262 24.3959C25.5716 24.3959 25.0736 24.0988 24.7415 23.4784C24.5668 23.1376 24.558 23.0328 24.558 20.1142C24.558 17.1956 24.5668 17.0908 24.7415 16.75C24.9512 16.3568 25.1347 16.182 25.5192 15.981C25.8862 15.7888 26.629 15.7975 27.0309 15.9985Z" fill="#FECB16"/>
  <path d="M17.7506 43.585C17.5671 43.7685 17.5234 43.8996 17.5234 44.2316C17.5234 44.8084 17.8205 45.1055 18.3973 45.1055C18.974 45.1055 19.2711 44.8084 19.2711 44.2316C19.2711 43.6549 18.974 43.3578 18.3973 43.3578C18.0652 43.3578 17.9341 43.4015 17.7506 43.585Z" fill="#FECB16"/>
</svg>